<svg width="17" height="18" viewBox="0 0 17 18" fill="none" xmlns="http://www.w3.org/2000/svg">
<path d="M12.75 0H4.25C1.87 0 0 1.98 0 4.5V13.5C0 16.02 1.87 18 4.25 18H12.75C15.13 18 17 16.02 17 13.5V4.5C17 1.98 15.13 0 12.75 0ZM15.3 13.5C15.3 15.03 14.195 16.2 12.75 16.2H4.25C2.805 16.2 1.7 15.03 1.7 13.5V4.5C1.7 2.97 2.805 1.8 4.25 1.8H12.75C14.195 1.8 15.3 2.97 15.3 4.5V13.5Z" fill="white"/>
<path d="M8.5 4.5C6.12 4.5 4.25 6.48 4.25 9C4.25 11.52 6.12 13.5 8.5 13.5C10.88 13.5 12.75 11.52 12.75 9C12.75 6.48 10.88 4.5 8.5 4.5ZM8.5 11.7C7.055 11.7 5.95 10.53 5.95 9C5.95 7.47 7.055 6.3 8.5 6.3C9.945 6.3 11.05 7.47 11.05 9C11.05 10.53 9.945 11.7 8.5 11.7Z" fill="white"/>
<path d="M12.7504 5.40001C13.2198 5.40001 13.6004 4.99707 13.6004 4.50001C13.6004 4.00295 13.2198 3.60001 12.7504 3.60001C12.2809 3.60001 11.9004 4.00295 11.9004 4.50001C11.9004 4.99707 12.2809 5.40001 12.7504 5.40001Z" fill="white"/>
</svg>
