<svg width="28" height="28" viewBox="0 0 28 28" fill="none" xmlns="http://www.w3.org/2000/svg">
<path d="M27.3838 13.1162L24.8838 10.6162L14.8838 0.616243C14.6494 0.381904 14.3315 0.250259 14 0.250259C13.6686 0.250259 13.3507 0.381904 13.1163 0.616243L3.11627 10.6162L0.616271 13.1162C0.388573 13.352 0.26258 13.6677 0.265428 13.9955C0.268276 14.3232 0.399737 14.6368 0.631497 14.8685C0.863257 15.1003 1.17677 15.2317 1.50452 15.2346C1.83226 15.2374 2.14802 15.1114 2.38377 14.8837L2.75002 14.5175V26.5C2.75002 26.8315 2.88172 27.1495 3.11614 27.3839C3.35056 27.6183 3.6685 27.75 4.00002 27.75H24C24.3315 27.75 24.6495 27.6183 24.8839 27.3839C25.1183 27.1495 25.25 26.8315 25.25 26.5V14.5175L25.6163 14.8837C25.852 15.1114 26.1678 15.2374 26.4955 15.2346C26.8233 15.2317 27.1368 15.1003 27.3685 14.8685C27.6003 14.6368 27.7318 14.3232 27.7346 13.9955C27.7375 13.6677 27.6115 13.352 27.3838 13.1162ZM22.75 25.25H5.25002V12.0175L14 3.26749L22.75 12.0175V25.25Z" fill="#212529"/>
</svg>
