<svg width="24" height="18" viewBox="0 0 24 18" fill="none" xmlns="http://www.w3.org/2000/svg">
<path d="M20.9669 0.209991H3.03313C1.3607 0.209991 0 1.57069 0 3.24312V14.7567C0 16.4292 1.3607 17.7899 3.03313 17.7899H20.9669C22.6393 17.7899 24 16.4292 24 14.7567V3.24312C24 1.57069 22.6393 0.209991 20.9669 0.209991ZM20.493 2.16651L12 8.72725L3.507 2.16651H20.493ZM20.9669 15.8335H3.03313C2.43952 15.8335 1.95652 15.3505 1.95652 14.7569V3.44112L11.402 10.7376C11.578 10.8737 11.7891 10.9416 12 10.9416C12.2109 10.9416 12.422 10.8737 12.598 10.7376L22.0435 3.44112V14.7567C22.0435 15.3505 21.5605 15.8335 20.9669 15.8335Z" fill="white"/>
</svg>
