<svg width="140" height="170" viewBox="0 0 140 170" fill="none" xmlns="http://www.w3.org/2000/svg">
<path d="M35.0768 109.373C35.0768 106.55 33.1177 104.866 29.6612 104.866C28.2498 104.866 27.2939 105.005 26.7939 105.139V114.197C27.386 114.33 28.1137 114.374 29.1168 114.374C32.8011 114.374 35.0768 112.513 35.0768 109.373Z" fill="#EEEAE8"/>
<path d="M56.4738 104.961C54.9259 104.961 53.9256 105.095 53.334 105.233V125.294C53.926 125.433 54.8819 125.433 55.7461 125.433C62.0254 125.478 66.1208 122.021 66.1208 114.697C66.1653 108.328 62.4334 104.961 56.4738 104.961Z" fill="#EEEAE8"/>
<path d="M96.2283 0H27.9494C17.9745 0 9.85601 8.12413 9.85601 18.0934V84.9996H8.0888C4.06288 84.9996 0.797852 88.2615 0.797852 92.2909V136.508C0.797852 140.537 4.06253 143.798 8.0888 143.798H9.85601V151.906C9.85601 161.886 17.9745 170 27.9494 170H121.113C131.082 170 139.201 161.886 139.201 151.906V42.8223L96.2283 0ZM19.9251 100.271C22.0618 99.9095 25.0652 99.6373 29.2967 99.6373C33.5729 99.6373 36.6208 100.454 38.6686 102.093C40.6248 103.638 41.9449 106.188 41.9449 109.19C41.9449 112.19 40.9446 114.741 39.1245 116.469C36.7572 118.698 33.2563 119.698 29.1609 119.698C28.2495 119.698 27.4325 119.653 26.7936 119.564V130.529H19.9251V100.271ZM121.113 158.919H27.9494C24.0871 158.919 20.9419 155.774 20.9419 151.906V143.798H107.79C111.816 143.798 115.081 140.537 115.081 136.508V92.2909C115.081 88.2615 111.816 84.9996 107.79 84.9996H20.9419V18.0934C20.9419 14.2367 24.0874 11.0916 27.9494 11.0916L92.0828 11.0246V34.7306C92.0828 41.6548 97.7011 47.2784 104.631 47.2784L127.853 47.2117L128.114 151.906C128.114 155.774 124.975 158.919 121.113 158.919ZM46.3739 130.39V100.271C48.9214 99.865 52.2418 99.6373 55.7459 99.6373C61.5693 99.6373 65.3456 100.682 68.3046 102.91C71.4889 105.277 73.4891 109.051 73.4891 114.468C73.4891 120.337 71.3524 124.388 68.3931 126.888C65.1644 129.572 60.2495 130.845 54.2452 130.845C50.6495 130.845 48.102 130.617 46.3739 130.39ZM96.0287 112.557V118.197H85.0172V130.529H78.057V99.865H96.8009V105.55H85.0172V112.557H96.0287Z" fill="#EEEAE8"/>
</svg>
