<svg width="90" height="88" viewBox="0 0 90 88" fill="none" xmlns="http://www.w3.org/2000/svg">
<path d="M36.0684 60.6143V26.8551C36.0684 26.5213 36.1902 26.2137 36.3897 26.0449C36.5893 25.8761 36.8342 25.8742 37.035 26.0374L61.6567 42.917C61.8602 43.0839 61.985 43.3952 61.985 43.7347C61.985 44.0741 61.8615 44.3855 61.6567 44.5524L37.035 61.432C36.8342 61.5951 36.5893 61.5914 36.3897 61.4245C36.1902 61.2575 36.0684 60.9481 36.0684 60.6143ZM37.3641 28.4587V59.0107L60.1017 43.7347L37.3641 28.4587Z" fill="#E48AA4"/>
<path d="M89 43.7344C89 67.3092 69.3276 86.4688 45 86.4688C20.6724 86.4688 1 67.3092 1 43.7344C1 20.1595 20.6724 1 45 1C69.3276 1 89 20.1595 89 43.7344Z" stroke="#E48AA4" stroke-width="2"/>
</svg>
