<svg width="18" height="24" viewBox="0 0 18 24" fill="none" xmlns="http://www.w3.org/2000/svg">
<path d="M16.4989 18.6365L15.9984 17.8007C15.0982 16.3165 13.8559 14.6131 12.2264 14.6131C11.9245 14.6131 11.6255 14.6738 11.3296 14.7968L10.4549 15.1719C10.3751 15.205 10.2974 15.2426 10.2153 15.2826C9.99143 15.3915 9.7376 15.5148 9.47651 15.5148C8.83245 15.5148 8.08621 14.6766 7.37558 13.1548C6.67816 11.6611 6.72265 10.8781 6.88274 10.4841C7.0594 10.0494 7.47019 9.86351 7.9115 9.69649C7.97288 9.67322 8.0283 9.65211 8.0822 9.62992L8.96787 9.25701C11.2752 8.29212 10.4168 4.92017 10.1354 3.81467L9.89672 2.86417C9.69268 2.0808 9.15167 0 7.35718 0C7.02497 0 6.67058 0.0773953 6.30417 0.230129C6.06376 0.325601 2.75535 1.67607 1.55676 4.04858C0.124239 6.87259 0.389115 10.6595 2.34326 15.3019C4.2828 19.95 6.79788 22.7931 9.81867 23.7519C10.3368 23.9165 10.9224 23.9999 11.5594 23.9999C11.5594 23.9999 11.5596 23.9999 11.5597 23.9999C13.6444 23.9999 15.7022 23.1129 15.8692 23.0393C16.588 22.7348 17.0526 22.2721 17.25 21.6639C17.5847 20.6324 17.0233 19.5023 16.4989 18.6365ZM15.7055 21.1627C15.6596 21.304 15.5 21.4331 15.2316 21.5461C15.2271 21.548 15.2217 21.5503 15.2172 21.5524C15.1986 21.5606 13.3359 22.3764 11.5593 22.3763C11.0893 22.3763 10.6689 22.3185 10.31 22.2044C7.76505 21.3966 5.58889 18.864 3.84062 14.6744C2.07936 10.4899 1.79793 7.16204 3.00529 4.78194C3.9428 2.9263 6.87787 1.74913 6.90666 1.73788C6.91251 1.73549 6.91824 1.73322 6.92398 1.73084C7.09111 1.6607 7.24092 1.62368 7.35718 1.62368C7.71493 1.62368 8.04053 2.17854 8.32348 3.26608L8.56108 4.21258C9.07373 6.22593 8.99569 7.48526 8.3394 7.75977L7.45795 8.13105C7.42288 8.14555 7.38186 8.16082 7.33661 8.17803C6.84973 8.36237 5.83655 8.74577 5.37835 9.87282C4.96258 10.8955 5.13469 12.1938 5.90399 13.842C6.94011 16.0602 8.10862 17.1386 9.47629 17.1386C10.111 17.1386 10.6206 16.8909 10.9249 16.743C10.981 16.7158 11.0311 16.6908 11.085 16.6685L11.961 16.2928C12.0513 16.2552 12.1381 16.2369 12.2263 16.2369C12.6479 16.2369 13.4039 16.6544 14.6078 18.6389L15.108 19.4742C15.7244 20.492 15.7731 20.9542 15.7055 21.1627Z" fill="white"/>
</svg>
