<svg width="25" height="15" viewBox="0 0 25 15" fill="none" xmlns="http://www.w3.org/2000/svg">
<path d="M11.5245 0.398752L0.399387 11.5241C0.141869 11.7814 -1.12005e-07 12.1249 -9.59955e-08 12.4911C-7.99859e-08 12.8574 0.141869 13.2009 0.399387 13.4582L1.21849 14.2775C1.75222 14.8106 2.61969 14.8106 3.15262 14.2775L12.4948 4.9353L21.8474 14.2879C22.1049 14.5452 22.4482 14.6873 22.8142 14.6873C23.1807 14.6873 23.524 14.5452 23.7817 14.2879L24.6006 13.4686C24.8581 13.211 25 12.8678 25 12.5015C25 12.1352 24.8581 11.7917 24.6006 11.5344L13.4653 0.398752C13.207 0.140828 12.8621 -0.000837888 12.4954 -2.43881e-05C12.1273 -0.000837856 11.7826 0.140828 11.5245 0.398752Z" fill="white"/>
</svg>
